Patient4_TMGait_0pt3_03_left_29_GRF.mot
version=1
nRows=58
nColumns=19
inDegrees=no
endheader
time	F1x	F1y	F1z	M1x	M1y	M1z	F2x	F2y	F2z	M2x	M2y	M2z	EC1x	EC1y	EC1z	EC2x	EC2y	EC2z
51.32	-0.77991	-0.63867	-1.2454	0.31664	0.65037	0.77126	-19.8177	750.9048	-47.8624	242.1323	53.9151	712.6211	-0.0592	0.0182	-0.0073	-0.0462	0.0165	0.9585
51.3385	-0.5498	-0.0056037	-0.78712	0.036014	0.36404	1.0173	-21.865	762.9406	-48.1029	245.7566	54.7879	722.9097	-0.0592	0.0182	-0.0073	-0.0462	0.0165	0.9585
51.357	-0.34717	0.54995	-0.39643	-0.20939	0.12459	1.2353	-23.5749	779.0213	-48.1731	250.8256	55.2931	736.3313	-0.0592	0.0182	-0.0073	-0.0462	0.0165	0.9585
51.3755	-0.1905	0.99631	-0.095841	-0.40496	-0.057719	1.4169	-24.593	798.712	-47.944	257.2861	55.1812	752.3172	-0.0592	0.0182	-0.0073	-0.0462	0.0165	0.9585
51.394	-0.086105	1.3302	0.11546	-0.54683	-0.18653	1.561	-24.6522	820.7845	-47.3048	264.7949	54.26	769.6131	-0.0592	0.0182	-0.0073	-0.0462	0.0165	0.9585
51.4125	-0.032691	1.5601	0.25149	-0.63807	-0.27281	1.6614	-23.634	843.2388	-46.2131	272.707	52.4597	786.3476	-0.0592	0.0182	-0.0073	-0.0462	0.0165	0.9585
51.431	-0.022866	1.6908	0.33235	-0.68623	-0.33053	1.7077	-21.6046	863.518	-44.7203	280.1435	49.8632	800.2692	-0.0592	0.0182	-0.0073	-0.0462	0.0165	0.9585
51.4495	-0.045803	1.7204	0.37562	-0.69356	-0.37254	1.6924	-18.8096	878.9125	-42.9553	286.1343	46.6868	809.1214	-0.0592	0.0182	-0.0073	-0.0462	0.0165	0.9585
51.468	-0.091103	1.6322	0.39401	-0.65203	-0.40722	1.5925	-15.5841	887.1056	-41.0809	289.8153	43.2098	811.0943	-0.0592	0.0182	-0.0073	-0.0462	0.0165	0.9585
51.4865	-0.15279	1.3889	0.39743	-0.54568	-0.44018	1.3597	-12.2276	886.6663	-39.2543	290.6142	39.6945	805.1819	-0.0592	0.0182	-0.0073	-0.0462	0.0165	0.9585
51.505	-0.22859	0.93565	0.39339	-0.35314	-0.47578	0.93144	-8.8977	877.3218	-37.6033	288.3632	36.3313	791.3477	-0.0592	0.0182	-0.0073	-0.0462	0.0165	0.9585
51.5235	-0.3125	0.21908	0.38537	-0.054703	-0.51459	0.24931	-5.5868	859.9672	-36.2153	283.313	33.2222	770.501	-0.0592	0.0182	-0.0073	-0.0462	0.0165	0.9585
51.542	-0.39135	-0.79459	0.36791	0.36262	-0.54631	-0.72674	-2.1886	836.4474	-35.1379	276.0625	30.4002	744.3106	-0.0592	0.0182	-0.0073	-0.0462	0.0165	0.9585
51.5605	-0.44726	-2.0973	0.32657	0.89592	-0.54723	-1.9943	1.4201	809.2161	-34.373	267.4402	27.8475	714.9297	-0.0592	0.0182	-0.0073	-0.0462	0.0165	0.9585
51.579	-0.45033	-3.606	0.24268	1.5109	-0.48287	-3.4751	5.3364	780.9674	-33.8811	258.3714	25.5101	684.6918	-0.0592	0.0182	-0.0073	-0.0462	0.0165	0.9585
51.5975	-0.35267	-5.1103	0.097143	2.1203	-0.31183	-4.9664	9.6081	754.2804	-33.6006	249.7482	23.3218	655.8224	-0.0592	0.0182	-0.0073	-0.0462	0.0165	0.9585
51.616	-0.085883	-6.2152	-0.12579	2.5622	0.010899	-6.0804	14.2088	731.3064	-33.4736	242.3169	21.2331	630.1837	-0.0592	0.0182	-0.0073	-0.0462	0.0165	0.9585
51.6345	0.43317	-6.2856	-0.43318	2.577	0.5252	-6.1928	19.0235	713.5278	-33.4649	236.5905	19.2374	609.0822	-0.0592	0.0182	-0.0073	-0.0462	0.0165	0.9585
51.653	1.2921	-4.4148	-0.81951	1.7947	1.2617	-4.4085	23.8596	701.5835	-33.5619	232.787	17.3744	593.138	-0.0592	0.0182	-0.0073	-0.0462	0.0165	0.9585
51.6715	2.557	0.56857	-1.2509	-0.26321	2.2153	0.43304	28.4499	695.108	-33.769	230.7744	15.727	582.1656	-0.0592	0.0182	-0.0073	-0.0462	0.0165	0.9585
51.69	4.2442	10.0276	-1.6492	-4.1535	3.3145	9.6828	32.477	692.6828	-34.0951	230.0588	14.4004	575.1292	-0.0592	0.0182	-0.0073	-0.0462	0.0165	0.9585
51.7085	6.2713	25.3287	-1.8783	-10.4319	4.3878	24.695	35.6058	691.9996	-34.5266	229.8451	13.4926	570.26	-0.0592	0.0182	-0.0073	-0.0462	0.0165	0.9585
51.727	8.387	47.4989	-1.7339	-19.5113	5.1237	46.4959	37.5396	690.2248	-35.0077	229.1669	13.0585	565.3389	-0.0592	0.0182	-0.0073	-0.0462	0.0165	0.9585
51.7455	9.9922	76.7777	-0.95608	-31.477	5.0119	75.347	38.0778	684.491	-35.4227	227.0601	13.078	558.0814	-0.0592	0.0182	-0.0073	-0.0462	0.0165	0.9585
51.764	10.1582	112.2082	0.75678	-45.9203	3.3698	110.3412	37.1617	672.4388	-35.6177	222.7503	13.4595	546.5509	-0.0592	0.0182	-0.0073	-0.0462	0.0165	0.9585
51.7825	8.5015	151.8787	3.7054	-62.0371	-0.26521	149.6036	34.9217	652.7082	-35.4418	215.8177	14.052	529.5437	-0.0592	0.0182	-0.0073	-0.0462	0.0165	0.9585
51.801	5.4115	193.4688	7.9325	-78.8787	-5.7806	190.7542	31.7027	625.1546	-34.7982	206.2623	14.6701	506.77	-0.0592	0.0182	-0.0073	-0.0462	0.0165	0.9585
51.8195	1.5558	235.0701	12.9486	-95.7031	-12.3959	231.7562	28.0037	590.7851	-33.6505	194.4717	15.119	478.8292	-0.0592	0.0182	-0.0073	-0.0462	0.0165	0.9585
51.838	-2.5114	275.9041	18.0544	-112.2405	-19.163	271.7191	24.3378	551.4934	-32.0121	181.1226	15.2357	447.0465	-0.0592	0.0182	-0.0073	-0.0462	0.0165	0.9585
51.8565	-6.3979	315.9241	22.7021	-128.5072	-25.3653	310.5302	21.078	509.5495	-29.9391	167.001	14.9328	413.1046	-0.0592	0.0182	-0.0073	-0.0462	0.0165	0.9585
51.875	-9.7823	354.9559	26.5401	-144.4449	-30.5194	347.9867	18.3993	467.0858	-27.5396	152.8259	14.2192	378.6404	-0.0592	0.0182	-0.0073	-0.0462	0.0165	0.9585
51.8935	-12.3833	392.272	29.4459	-159.7461	-34.3921	383.3746	16.2974	425.8305	-24.9787	139.1617	13.2018	345.0276	-0.0592	0.0182	-0.0073	-0.0462	0.0165	0.9585
51.912	-14.016	426.6774	31.471	-173.8963	-36.9658	415.5652	14.6585	387.101	-22.4528	126.4185	12.048	313.3563	-0.0592	0.0182	-0.0073	-0.0462	0.0165	0.9585
51.9305	-14.6483	456.8963	32.7776	-186.3409	-38.397	443.3858	13.356	351.902	-20.1527	114.8933	10.9311	284.479	-0.0592	0.0182	-0.0073	-0.0462	0.0165	0.9585
51.949	-14.3894	482.0495	33.5327	-196.6928	-38.9061	466.073	12.3148	320.9945	-18.2219	104.8024	9.9784	259.0426	-0.0592	0.0182	-0.0073	-0.0462	0.0165	0.9585
51.9675	-13.4293	501.9221	33.8306	-204.848	-38.6755	483.5219	11.5255	294.8988	-16.7318	96.2902	9.2462	237.4837	-0.0592	0.0182	-0.0073	-0.0462	0.0165	0.9585
51.986	-11.9793	516.8633	33.7013	-210.9434	-37.8354	496.1657	11.0255	273.8327	-15.6782	89.4105	8.7217	219.9837	-0.0592	0.0182	-0.0073	-0.0462	0.0165	0.9585
52.0045	-10.2392	527.5093	33.1849	-215.2367	-36.5197	504.7126	10.8695	257.6348	-15.0043	84.1012	8.3453	206.41	-0.0592	0.0182	-0.0073	-0.0462	0.0165	0.9585
52.023	-8.3837	534.5837	32.3874	-218.0167	-34.9118	509.954	11.0946	245.7434	-14.6274	80.1745	8.0459	196.3092	-0.0592	0.0182	-0.0073	-0.0462	0.0165	0.9585
52.0415	-6.5468	538.8426	31.4663	-219.5797	-33.2223	512.7028	11.7013	237.224	-14.4688	77.3239	7.767	188.9275	-0.0592	0.0182	-0.0073	-0.0462	0.0165	0.9585
52.06	-4.8149	541.0684	30.5821	-220.2308	-31.6424	513.7768	12.6286	230.8262	-14.4686	75.1415	7.4811	183.2673	-0.0592	0.0182	-0.0073	-0.0462	0.0165	0.9585
52.0785	-3.2579	542.0715	29.8715	-220.289	-30.3307	513.994	13.7353	225.0644	-14.5741	73.1452	7.1936	178.1629	-0.0592	0.0182	-0.0073	-0.0462	0.0165	0.9585
52.097	-1.9407	542.7411	29.4446	-220.112	-29.413	514.2181	14.8155	218.4086	-14.7212	70.8421	6.9256	172.4239	-0.0592	0.0182	-0.0073	-0.0462	0.0165	0.9585
52.1155	-0.92262	544.0921	29.4056	-220.1141	-29.0002	515.3969	15.6324	209.5824	-14.8224	67.8241	6.6926	165.0622	-0.0592	0.0182	-0.0073	-0.0462	0.0165	0.9585
52.134	-0.27341	547.2377	29.8604	-220.7534	-29.2033	518.5385	15.959	197.819	-14.7844	63.8515	6.5031	155.4878	-0.0592	0.0182	-0.0073	-0.0462	0.0165	0.9585
52.1525	-0.090908	553.2901	30.8977	-222.4925	-30.1284	524.629	15.634	182.9498	-14.5342	58.8809	6.3605	143.5741	-0.0592	0.0182	-0.0073	-0.0462	0.0165	0.9585
52.171	-0.47734	563.2294	32.5553	-225.7464	-31.8378	534.5077	14.605	165.3825	-14.0426	53.0562	6.265	129.6369	-0.0592	0.0182	-0.0073	-0.0462	0.0165	0.9585
52.1895	-1.5206	577.776	34.7987	-230.8306	-34.3226	548.759	12.9337	145.9598	-13.3258	46.6594	6.2134	114.3215	-0.0592	0.0182	-0.0073	-0.0462	0.0165	0.9585
52.208	-3.2758	597.3277	37.5152	-237.9303	-37.4923	567.662	10.7662	125.7086	-12.4218	40.0286	6.1909	98.4085	-0.0592	0.0182	-0.0073	-0.0462	0.0165	0.9585
52.2265	-5.7367	621.9785	40.5275	-247.1044	-41.1748	591.2053	8.2814	105.5968	-11.3688	33.4804	6.1694	82.6366	-0.0592	0.0182	-0.0073	-0.0462	0.0165	0.9585
52.245	-8.8067	651.5696	43.6353	-258.302	-45.1406	619.1429	5.6691	86.4154	-10.2007	27.2725	6.1067	67.616	-0.0592	0.0182	-0.0073	-0.0462	0.0165	0.9585
52.2635	-12.283	685.6338	46.6705	-271.3368	-49.1479	650.9421	3.1279	68.7377	-8.945	21.5899	5.9512	53.788	-0.0592	0.0182	-0.0073	-0.0462	0.0165	0.9585
52.282	-15.8596	723.2134	49.5245	-285.8134	-52.9701	685.6174	0.85679	52.9105	-7.6293	16.54	5.6551	41.4177	-0.0592	0.0182	-0.0073	-0.0462	0.0165	0.9585
52.3005	-19.1719	762.6781	52.1544	-301.0568	-56.4207	721.5758	-0.96764	39.1034	-6.2774	12.1689	5.1819	30.6412	-0.0592	0.0182	-0.0073	-0.0462	0.0165	0.9585
52.319	-21.89	801.6842	54.5682	-316.1012	-59.3753	756.604	-2.2046	27.3892	-4.9116	8.4883	4.5095	21.5182	-0.0592	0.0182	-0.0073	-0.0462	0.0165	0.9585
52.3375	-23.7847	837.349	56.7873	-329.7697	-61.7661	788.041	-2.7641	17.7985	-3.5717	5.4964	3.6449	14.0683	-0.0592	0.0182	-0.0073	-0.0462	0.0165	0.9585
52.356	-24.7465	866.6879	58.7986	-340.8575	-63.5452	813.181	-2.6656	10.3452	-2.3299	3.1869	2.6521	8.2922	-0.0592	0.0182	-0.0073	-0.0462	0.0165	0.9585
52.3745	-24.7792	887.1245	60.5407	-348.344	-64.6637	829.733	-2.1392	5.0066	-1.2878	1.5439	1.6826	4.1627	-0.0592	0.0182	-0.0073	-0.0462	0.0165	0.9585
